<svg  height="512" viewBox="0 0 64 64" width="512" xmlns="http://www.w3.org/2000/svg"><g id="screen-smarphone-mobile-hand-education"><path d="m37 57v4h-24a2.006 2.006 0 0 1 -2-2v-6h23z" fill="#78b9eb"/><path d="m33 24-6 4v-8z" fill="#78b9eb"/><path d="m40 13v19.27a2 2 0 0 0 -3 1.73v1h-19v-22zm-4 11a7 7 0 1 0 -7 7 6.995 6.995 0 0 0 7-7z" fill="#78b9eb"/><path d="m47 5v4h-36v-4a2.006 2.006 0 0 1 2-2h32a2.006 2.006 0 0 1 2 2z" fill="#78b9eb"/><g fill="#006df0"><path d="m51 39a2.942 2.942 0 0 0 -1.47.4 3.032 3.032 0 0 0 -1.53-1.22v-33.18a3.009 3.009 0 0 0 -3-3h-32a3.009 3.009 0 0 0 -3 3v54a3.009 3.009 0 0 0 3 3h25v-5a.984.984 0 0 0 -.2-.6l-2.8-3.73v-7.26l1-1v3.59h2v-14a1 1 0 0 1 2 0v14h2v-7a1 1 0 0 1 2 0v7h2v-7a1 1 0 0 1 2 0v7h2v-6a1 1 0 0 1 2 0v11.67l-2.8 3.73a.984.984 0 0 0 -.2.6v4h2v-3.67l2.8-3.73a.984.984 0 0 0 .2-.6v-12a3.009 3.009 0 0 0 -3-3zm-15 18.33v2.67h-23a1 1 0 0 1 -1-1v-5h21.5zm3-26.33a3.009 3.009 0 0 0 -3 3h-17v-20h20zm7 7.18a3.174 3.174 0 0 0 -1 .6 2.974 2.974 0 0 0 -2-.78 3 3 0 0 0 -1 .18v-4.18a2.986 2.986 0 0 0 -1-2.22v-18.78a1 1 0 0 0 -1-1h-22a1 1 0 0 0 -1 1v22a1 1 0 0 0 1 1h18v5.59l-2.71 2.7a1.033 1.033 0 0 0 -.29.71v7h-21v-42h34zm0-30.18h-34v-3a1 1 0 0 1 1-1h32a1 1 0 0 1 1 1z"/><path d="m14 39h11v2h-11z"/><path d="m27 39h4v2h-4z"/><path d="m14 43h17v2h-17z"/><path d="m14 47h17v2h-17z"/><path d="m26.528 28.882a1 1 0 0 0 1.027-.05l6-4a1 1 0 0 0 0-1.664l-6-4a1 1 0 0 0 -1.555.832v8a1 1 0 0 0 .528.882zm1.472-7.014 3.2 2.132-3.2 2.132z"/><path d="m29 32a8 8 0 1 0 -8-8 8.009 8.009 0 0 0 8 8zm0-14a6 6 0 1 1 -6 6 6.006 6.006 0 0 1 6-6z"/><path d="m30 56h-2a1 1 0 0 0 0 2h2a1 1 0 0 0 0-2z"/></g></g></svg>
